HIERARCHY
ROOT Hips
{
 OFFSET 0.000000 0.000000 0.000000
 CHANNELS 6 Xposition Yposition Zposition Yrotation Xrotation Zrotation
 JOINT Chest
 {
  OFFSET 0.000000 9.968492 -0.001267
  CHANNELS 3 Yrotation Xrotation Zrotation
  JOINT Chest2
  {
   OFFSET 0.000000 10.967159 0.002301
   CHANNELS 3 Yrotation Xrotation Zrotation
   JOINT Chest3
   {
    OFFSET 0.000000 9.909283 0.000000
    CHANNELS 3 Yrotation Xrotation Zrotation
    JOINT Chest4
    {
     OFFSET 0.000000 9.909283 0.000000
     CHANNELS 3 Yrotation Xrotation Zrotation
     JOINT Neck
     {
      OFFSET 0.000000 13.946294 0.000000
      CHANNELS 3 Yrotation Xrotation Zrotation
      JOINT Head
      {
       OFFSET 0.000000 9.224544 0.005472
       CHANNELS 3 Yrotation Xrotation Zrotation
       End Site
       {
        OFFSET 0.000000 17.643221 0.002858
       }
      }
     }
     JOINT RightCollar
     {
      OFFSET -3.037229 7.783075 0.000000
      CHANNELS 3 Yrotation Xrotation Zrotation
      JOINT RightShoulder
      {
       OFFSET -14.223264 0.000000 0.000000
       CHANNELS 3 Yrotation Xrotation Zrotation
       JOINT RightElbow
       {
        OFFSET 0.000000 -30.459151 0.000000
        CHANNELS 3 Yrotation Xrotation Zrotation
        JOINT RightWrist
        {
         OFFSET 0.000000 -24.900006 -0.000000
         CHANNELS 3 Yrotation Xrotation Zrotation
         End Site
         {
          OFFSET 0.000000 -18.592915 0.000000
         }
        }
       }
      }
     }
     JOINT LeftCollar
     {
      OFFSET 3.037229 7.783075 0.000000
      CHANNELS 3 Yrotation Xrotation Zrotation
      JOINT LeftShoulder
      {
       OFFSET 14.223264 0.000000 0.000000
       CHANNELS 3 Yrotation Xrotation Zrotation
       JOINT LeftElbow
       {
        OFFSET 0.000000 -30.459151 0.000000
        CHANNELS 3 Yrotation Xrotation Zrotation
        JOINT LeftWrist
        {
         OFFSET 0.000000 -24.900006 -0.000000
         CHANNELS 3 Yrotation Xrotation Zrotation
         End Site
         {
          OFFSET 0.000000 -18.592915 0.000000
         }
        }
       }
      }
     }
    }
   }
  }
 }
 JOINT RightHip
 {
  OFFSET -8.105589 0.006207 0.000633
  CHANNELS 3 Yrotation Xrotation Zrotation
  JOINT RightKnee
  {
   OFFSET 0.000000 -42.037588 -0.000599
   CHANNELS 3 Yrotation Xrotation Zrotation
   JOINT RightAnkle
   {
    OFFSET 0.000000 -41.031088 -0.001013
    CHANNELS 3 Yrotation Xrotation Zrotation
    JOINT RightToe
    {
     OFFSET 0.000000 -7.217244 16.396997
     CHANNELS 3 Yrotation Xrotation Zrotation
     End Site
     {
      OFFSET 0.000000 -1.535852 6.674588
     }
    }
   }
  }
 }
 JOINT LeftHip
 {
  OFFSET 8.105589 0.006207 0.000633
  CHANNELS 3 Yrotation Xrotation Zrotation
  JOINT LeftKnee
  {
   OFFSET 0.000000 -42.037588 -0.000599
   CHANNELS 3 Yrotation Xrotation Zrotation
   JOINT LeftAnkle
   {
    OFFSET 0.000000 -41.031088 -0.001013
    CHANNELS 3 Yrotation Xrotation Zrotation
    JOINT LeftToe
    {
     OFFSET 0.000000 -7.217244 16.396997
     CHANNELS 3 Yrotation Xrotation Zrotation
     End Site
     {
      OFFSET 0.000000 -1.535852 6.674588
     }
    }
   }
  }
 }
}
MOTION
Frames: 16
Frame Time: 0.008333
12.730940 57.896352 130.530952 16.511029 -15.600272 -0.236278 -4.341130 14.928491 -2.729920 -1.490619 6.589541 -0.102773 -1.490619 6.589541 -0.102773 -1.115615 4.942441 -0.060860 0.946460 18.002090 4.992650 -0.146345 -6.931519 5.112538 -3.861849 6.801164 5.690928 -13.053587 -27.255616 -18.018594 20.915178 -86.069073 -4.062279 -2.424195 5.628954 -9.458149 -2.736743 -0.531241 -10.072125 -2.886406 -18.325037 13.628215 -42.393544 -41.446129 13.518160 -16.688239 6.487015 6.374718 1.427583 -53.507401 -30.734675 137.896031 62.016003 130.811860 23.088072 -23.534122 -3.795943 0.710656 -8.025842 -4.690630 24.547102 -51.156922 10.429753 165.587663 66.753577 170.847842 -33.368916 -19.253069 5.429980 -2.654554 -24.418482 16.044264
12.732441 57.897041 130.531421 16.505458 -15.599529 -0.228509 -4.342235 14.927462 -2.722975 -1.491401 6.589378 -0.100230 -1.491401 6.589378 -0.100230 -1.116229 4.942313 -0.058946 0.939306 17.996868 4.989634 -0.153301 -6.937387 5.110845 -3.880376 6.795584 5.688547 -13.120868 -27.208512 -18.017150 25.378497 -85.542462 -8.693401 -2.255156 5.735788 -9.309514 -2.738931 -0.536385 -10.069947 -2.893807 -18.314467 13.616616 -42.376961 -41.437779 13.511896 -16.691466 6.487541 6.378081 1.439136 -53.508956 -30.745051 137.885481 62.011158 130.798980 23.089095 -23.531739 -3.795214 0.711008 -8.028410 -4.694014 24.546210 -51.152245 10.425757 165.593652 66.753799 170.847746 -33.364967 -19.249802 5.429490 -2.654476 -24.423817 16.042190
12.734324 57.897183 130.531679 16.500740 -15.599473 -0.220205 -4.348510 14.926634 -2.716930 -1.494021 6.588831 -0.097734 -1.494021 6.588831 -0.097734 -1.118220 4.941897 -0.057049 0.931215 17.995980 4.985538 -0.160997 -6.938531 5.108238 -3.889631 6.798975 5.685219 -13.210913 -27.169777 -18.012443 29.273545 -84.991640 -12.729357 -2.071634 5.854571 -9.149693 -2.735626 -0.534614 -10.070391 -2.901479 -18.313232 13.609475 -42.355098 -41.429972 13.497244 -16.699118 6.485526 6.376795 1.445395 -53.512523 -30.751916 137.891450 62.007740 130.799634 23.085859 -23.532031 -3.798016 0.718290 -8.030732 -4.692869 24.556715 -51.147386 10.415185 165.586565 66.754641 170.840391 -33.368456 -19.246876 5.431372 -2.651931 -24.427268 16.040313
12.737468 57.897336 130.531063 16.494146 -15.600570 -0.206378 -4.358649 14.922856 -2.715076 -1.497438 6.587643 -0.094986 -1.497438 6.587643 -0.094986 -1.120809 4.941000 -0.054956 0.920250 17.996377 4.979703 -0.171359 -6.938334 5.104415 -3.895265 6.798622 5.675053 -13.334100 -27.133470 -17.999521 32.540385 -84.405112 -16.123250 -1.881214 5.960570 -8.959404 -2.731606 -0.525806 -10.078173 -2.915824 -18.315390 13.606122 -42.327926 -41.414864 13.480293 -16.710302 6.481858 6.386853 1.464477 -53.515643 -30.774280 137.896572 62.004114 130.804442 23.068240 -23.532249 -3.791958 0.724300 -8.032782 -4.691585 24.564379 -51.135334 10.400884 165.582377 66.756237 170.827627 -33.363122 -19.246608 5.434104 -2.654308 -24.429883 16.036173
12.738033 57.898228 130.531606 16.484764 -15.603678 -0.201758 -4.365441 14.922732 -2.703681 -1.500529 6.587280 -0.092889 -1.500529 6.587280 -0.092889 -1.123148 4.940723 -0.053353 0.912005 17.992558 4.976178 -0.179357 -6.942673 5.102437 -3.900485 6.791411 5.665189 -13.466600 -27.107195 -17.985465 35.673237 -83.753371 -19.353377 -1.703230 6.018072 -8.745106 -2.728405 -0.521209 -10.081375 -2.913072 -18.314916 13.598503 -42.302094 -41.409750 13.459521 -16.727568 6.479016 6.391786 1.474961 -53.510218 -30.777633 137.889611 62.003023 130.801516 23.057249 -23.537220 -3.794727 0.730532 -8.028805 -4.687852 24.571161 -51.129759 10.401410 165.592648 66.758164 170.836373 -33.358323 -19.242739 5.434958 -2.656227 -24.433967 16.035176
12.739132 57.899213 130.532696 16.481428 -15.610679 -0.194750 -4.380020 14.924222 -2.696941 -1.505093 6.586848 -0.091330 -1.505093 6.586848 -0.091330 -1.126585 4.940396 -0.052137 0.906053 17.989816 4.975583 -0.185581 -6.945686 5.103148 -3.901479 6.785006 5.658323 -13.604321 -27.095329 -17.982502 38.589402 -83.046793 -22.360710 -1.542765 6.022319 -8.501910 -2.727122 -0.521493 -10.090667 -2.909849 -18.309015 13.600436 -42.270217 -41.396254 13.435940 -16.750832 6.469177 6.393724 1.481604 -53.500306 -30.785596 137.900343 62.006694 130.815215 23.047462 -23.544443 -3.798032 0.739794 -8.026652 -4.683041 24.576099 -51.119072 10.400875 165.587514 66.759636 170.829878 -33.364519 -19.238201 5.436569 -2.653865 -24.437784 16.035070
12.737651 57.900594 130.533504 16.469911 -15.613336 -0.192835 -4.384371 14.921262 -2.685529 -1.509213 6.586992 -0.089750 -1.509213 6.586992 -0.089750 -1.129688 4.940501 -0.050908 0.899599 17.985887 4.972978 -0.191880 -6.950109 5.101758 -3.907604 6.771576 5.644087 -13.746486 -27.077713 -17.978624 41.472789 -82.266318 -25.325447 -1.392975 5.967645 -8.229198 -2.720921 -0.524276 -10.089157 -2.905123 -18.301103 13.585627 -42.254437 -41.379261 13.427133 -16.762785 6.460373 6.398209 1.484570 -53.497368 -30.773517 137.902464 62.008102 130.816028 23.040498 -23.546190 -3.799148 0.743852 -8.026105 -4.681623 24.591688 -51.116380 10.399059 165.588946 66.760863 170.836760 -33.358266 -19.239436 5.437770 -2.656766 -24.438326 16.031762
12.739593 57.901656 130.534177 16.467729 -15.621614 -0.179868 -4.400309 14.925545 -2.682257 -1.512738 6.587456 -0.086091 -1.512738 6.587456 -0.086091 -1.132368 4.940840 -0.048128 0.884931 17.980284 4.966447 -0.206044 -6.956527 5.097972 -3.920903 6.753013 5.624449 -13.876967 -27.062563 -17.978256 44.276473 -81.413713 -28.229985 -1.231031 5.881959 -7.932648 -2.722489 -0.526002 -10.095412 -2.904037 -18.295003 13.570618 -42.243957 -41.364504 13.418800 -16.773165 6.462173 6.410111 1.496912 -53.488382 -30.796955 137.894918 62.006162 130.807485 23.031076 -23.551383 -3.787174 0.738792 -8.023591 -4.687758 24.598953 -51.101503 10.386033 165.605117 66.763289 170.850184 -33.352676 -19.233008 5.441722 -2.655398 -24.444398 16.028697
12.740319 57.902255 130.535412 16.459071 -15.630058 -0.166449 -4.410515 14.929764 -2.679735 -1.515605 6.587968 -0.084122 -1.515605 6.587968 -0.084122 -1.134538 4.941220 -0.046620 0.874000 17.976583 4.961231 -0.216519 -6.960803 5.094774 -3.930752 6.729221 5.606755 -13.993268 -27.042825 -17.988357 46.963873 -80.494606 -31.036331 -1.053983 5.778699 -7.604520 -2.724512 -0.531001 -10.097157 -2.893439 -18.284451 13.561957 -42.238856 -41.362633 13.409216 -16.782242 6.462328 6.409447 1.518600 -53.480866 -30.814926 137.901528 62.006128 130.809647 23.045839 -23.550795 -3.790757 0.738684 -8.027777 -4.689968 24.610456 -51.089944 10.379827 165.619789 66.761722 170.862619 -33.351248 -19.224400 5.446846 -2.655454 -24.453151 16.026145
12.739483 57.901824 130.535309 16.448358 -15.631176 -0.158207 -4.412218 14.929640 -2.673936 -1.518038 6.588784 -0.082159 -1.518038 6.588784 -0.082159 -1.136381 4.941828 -0.045121 0.861927 17.971606 4.957947 -0.228660 -6.966374 5.093947 -3.937904 6.703722 5.599486 -14.078151 -27.016475 -18.018179 49.498163 -79.515485 -33.720971 -0.864787 5.687240 -7.267012 -2.731245 -0.537326 -10.092598 -2.887854 -18.271195 13.558481 -42.224978 -41.357503 13.392314 -16.792330 6.462077 6.422066 1.537795 -53.481889 -30.822128 137.892860 61.999548 130.799377 23.046501 -23.548245 -3.790714 0.738452 -8.033207 -4.692886 24.631512 -51.087705 10.371109 165.614552 66.760840 170.860439 -33.354946 -19.222769 5.452913 -2.654218 -24.454457 16.021797
12.738291 57.900969 130.536030 16.438368 -15.636784 -0.151394 -4.419738 14.930777 -2.667960 -1.521205 6.588456 -0.080479 -1.521205 6.588456 -0.080479 -1.138772 4.941578 -0.043829 0.852947 17.967152 4.956577 -0.237939 -6.971288 5.094501 -3.944604 6.690413 5.587964 -14.149247 -26.987410 -18.050001 51.722034 -78.512851 -36.109967 -0.630293 5.630763 -6.933571 -2.736188 -0.541871 -10.096132 -2.881556 -18.261192 13.555141 -42.201189 -41.347583 13.376032 -16.815718 6.458126 6.420111 1.547153 -53.478571 -30.823188 137.899687 61.997742 130.804017 23.055546 -23.551404 -3.805027 0.746869 -8.032800 -4.689030 24.635467 -51.080497 10.375367 165.608817 66.758096 170.851663 -33.352790 -19.225010 5.452989 -2.657957 -24.455320 16.018597
12.737232 57.901010 130.537636 16.431696 -15.646989 -0.144599 -4.431309 14.933160 -2.661103 -1.525566 6.588303 -0.078941 -1.525566 6.588303 -0.078941 -1.142055 4.941460 -0.042630 0.843102 17.962330 4.958253 -0.248847 -6.976438 5.098593 -3.946680 6.684850 5.571874 -14.227098 -26.953541 -18.074523 53.718304 -77.511993 -38.270225 -0.381335 5.611529 -6.586280 -2.742579 -0.533009 -10.098050 -2.869784 -18.260465 13.550240 -42.173762 -41.340392 13.358804 -16.842513 6.449314 6.418837 1.550018 -53.469192 -30.826142 137.898515 61.996270 130.799458 23.069925 -23.555382 -3.818404 0.748273 -8.029813 -4.688105 24.640062 -51.069418 10.376032 165.615945 66.758559 170.861539 -33.350778 -19.223833 5.449269 -2.657052 -24.457906 16.019317
12.737678 57.899584 130.538227 16.425629 -15.653529 -0.130390 -4.445372 14.934139 -2.663679 -1.529701 6.588034 -0.077307 -1.529701 6.588034 -0.077307 -1.145171 4.941255 -0.041362 0.832986 17.956485 4.959066 -0.259846 -6.982757 5.101792 -3.957086 6.676991 5.562422 -14.304435 -26.926213 -18.109130 55.399592 -76.514185 -40.101870 -0.126141 5.625482 -6.262890 -2.747696 -0.527431 -10.092970 -2.865037 -18.257830 13.541569 -42.138067 -41.333801 13.331869 -16.862061 6.446226 6.427071 1.566699 -53.468126 -30.845790 137.910955 61.995877 130.803547 23.075571 -23.557272 -3.807587 0.740978 -8.032499 -4.696224 24.652451 -51.058539 10.364734 165.609982 66.758168 170.858046 -33.359293 -19.223223 5.443374 -2.652416 -24.459173 16.023735
12.738767 57.898872 130.539207 16.413323 -15.662524 -0.112926 -4.459279 14.933939 -2.667547 -1.533713 6.587524 -0.074405 -1.533713 6.587524 -0.074405 -1.148208 4.940867 -0.039145 0.822973 17.954039 4.956140 -0.269865 -6.985531 5.100908 -3.970406 6.678509 5.545979 -14.399503 -26.903810 -18.132377 56.825964 -75.520889 -41.668363 0.141785 5.624994 -5.935950 -2.732166 -0.516292 -10.099092 -2.874922 -18.253487 13.537565 -42.098542 -41.328138 13.306498 -16.890010 6.439878 6.421239 1.595373 -53.461834 -30.865103 137.908136 61.988243 130.790899 23.069080 -23.562262 -3.791796 0.730859 -8.036722 -4.704549 24.675089 -51.043305 10.356669 165.606872 66.758519 170.854212 -33.369041 -19.222191 5.445347 -2.647611 -24.460406 16.024085
12.742696 57.898082 130.539759 16.407730 -15.672072 -0.087789 -4.479279 14.935999 -2.679710 -1.537270 6.587185 -0.072602 -1.537270 6.587185 -0.072602 -1.150893 4.940608 -0.037757 0.813551 17.950289 4.955710 -0.279832 -6.989612 5.102606 -3.987674 6.670498 5.534263 -14.514099 -26.886208 -18.149725 58.088240 -74.508831 -43.034254 0.380889 5.600448 -5.627702 -2.729669 -0.506704 -10.105541 -2.878679 -18.248603 13.538338 -42.067631 -41.331247 13.284646 -16.915197 6.449601 6.423822 1.643201 -53.449667 -30.917744 137.908144 61.983615 130.793449 23.067136 -23.571105 -3.784930 0.728296 -8.037815 -4.707172 24.697087 -51.019850 10.332649 165.600951 66.762478 170.845520 -33.375481 -19.222944 5.441141 -2.642776 -24.460170 16.027697
12.747849 57.897928 130.541341 16.410184 -15.683753 -0.069345 -4.508864 14.944169 -2.691896 -1.542627 6.587759 -0.071787 -1.542627 6.587759 -0.071787 -1.154915 4.941037 -0.037087 0.807903 17.943365 4.956941 -0.286159 -6.997126 5.105202 -3.998479 6.654617 5.524173 -14.667664 -26.874917 -18.149980 59.260112 -73.504119 -44.265351 0.583187 5.553419 -5.322846 -2.720415 -0.502256 -10.104522 -2.878901 -18.249663 13.536016 -42.040545 -41.325081 13.260256 -16.931637 6.448157 6.428479 1.662360 -53.436523 -30.957865 137.906377 61.976828 130.791923 23.052514 -23.583037 -3.778068 0.731251 -8.035062 -4.708964 24.708963 -50.998805 10.312956 165.610764 66.765228 170.852917 -33.376443 -19.216492 5.439684 -2.639242 -24.465722 16.031961
